<?xml version="1.0" encoding="UTF-8" standalone="no"?>
<!-- Created with Inkscape (http://www.inkscape.org/) -->

<svg
   xmlns:dc="http://purl.org/dc/elements/1.1/"
   xmlns:cc="http://creativecommons.org/ns#"
   xmlns:rdf="http://www.w3.org/1999/02/22-rdf-syntax-ns#"
   xmlns:svg="http://www.w3.org/2000/svg"
   xmlns="http://www.w3.org/2000/svg"
   xmlns:sodipodi="http://sodipodi.sourceforge.net/DTD/sodipodi-0.dtd"
   xmlns:inkscape="http://www.inkscape.org/namespaces/inkscape"
   width="1024px"
   height="768px"
   id="svg3854"
   version="1.1"
   inkscape:version="0.48.1 r9760"
   sodipodi:docname="revcomp-search.svg">
  <sodipodi:namedview
     id="base"
     pagecolor="#ffffff"
     bordercolor="#666666"
     borderopacity="1.0"
     inkscape:pageopacity="0.0"
     inkscape:pageshadow="2"
     inkscape:zoom="0.5406881"
     inkscape:cx="472.97145"
     inkscape:cy="584.62105"
     inkscape:current-layer="layer1"
     inkscape:document-units="px"
     showgrid="false"
     inkscape:window-width="1024"
     inkscape:window-height="549"
     inkscape:window-x="0"
     inkscape:window-y="25"
     inkscape:window-maximized="1" />
  <defs
     id="defs3856">
    <marker
       style="overflow:visible"
       id="Arrow2Lstart"
       refX="0.0"
       refY="0.0"
       orient="auto"
       inkscape:stockid="Arrow2Lstart">
      <path
         transform="scale(1.1) translate(1,0)"
         d="M 8.7185878,4.0337352 L -2.2072895,0.016013256 L 8.7185884,-4.0017078 C 6.9730900,-1.6296469 6.9831476,1.6157441 8.7185878,4.0337352 z "
         style="font-size:12.0;fill-rule:evenodd;stroke-width:0.62500000;stroke-linejoin:round"
         id="path4068" />
    </marker>
    <marker
       style="overflow:visible"
       id="Arrow1Lstart"
       refX="0.0"
       refY="0.0"
       orient="auto"
       inkscape:stockid="Arrow1Lstart">
      <path
         transform="scale(0.8) translate(12.5,0)"
         style="fill-rule:evenodd;stroke:#000000;stroke-width:1.0pt;marker-start:none"
         d="M 0.0,0.0 L 5.0,-5.0 L -12.5,0.0 L 5.0,5.0 L 0.0,0.0 z "
         id="path4050" />
    </marker>
    <marker
       style="overflow:visible;"
       id="Arrow2Lend"
       refX="0.0"
       refY="0.0"
       orient="auto"
       inkscape:stockid="Arrow2Lend">
      <path
         transform="scale(1.1) rotate(180) translate(1,0)"
         d="M 8.7185878,4.0337352 L -2.2072895,0.016013256 L 8.7185884,-4.0017078 C 6.9730900,-1.6296469 6.9831476,1.6157441 8.7185878,4.0337352 z "
         style="font-size:12.0;fill-rule:evenodd;stroke-width:0.62500000;stroke-linejoin:round;"
         id="path4570" />
    </marker>
    <marker
       style="overflow:visible;"
       id="Arrow2Lendf"
       refX="0.0"
       refY="0.0"
       orient="auto"
       inkscape:stockid="Arrow2Lendf">
      <path
         transform="scale(1.1) rotate(180) translate(1,0)"
         d="M 8.7185878,4.0337352 L -2.2072895,0.016013256 L 8.7185884,-4.0017078 C 6.9730900,-1.6296469 6.9831476,1.6157441 8.7185878,4.0337352 z "
         style="stroke-linejoin:round;font-size:12.0;fill-rule:evenodd;stroke:#00ff00;stroke-width:0.62500000;fill:#00ff00"
         id="path7919" />
    </marker>
    <marker
       style="overflow:visible;"
       id="Arrow2LendE"
       refX="0.0"
       refY="0.0"
       orient="auto"
       inkscape:stockid="Arrow2LendE">
      <path
         transform="scale(1.1) rotate(180) translate(1,0)"
         d="M 8.7185878,4.0337352 L -2.2072895,0.016013256 L 8.7185884,-4.0017078 C 6.9730900,-1.6296469 6.9831476,1.6157441 8.7185878,4.0337352 z "
         style="stroke-linejoin:round;font-size:12.0;fill-rule:evenodd;stroke:#00ff00;stroke-width:0.62500000;fill:#00ff00"
         id="path8031" />
    </marker>
    <marker
       style="overflow:visible"
       id="Arrow2Lstartx"
       refX="0.0"
       refY="0.0"
       orient="auto"
       inkscape:stockid="Arrow2Lstartx">
      <path
         transform="scale(1.1) translate(1,0)"
         d="M 8.7185878,4.0337352 L -2.2072895,0.016013256 L 8.7185884,-4.0017078 C 6.9730900,-1.6296469 6.9831476,1.6157441 8.7185878,4.0337352 z "
         style="stroke-linejoin:round;font-size:12.0;fill-rule:evenodd;stroke:#ff0000;stroke-width:0.62500000;fill:#ff0000"
         id="path5079" />
    </marker>
    <marker
       style="overflow:visible"
       id="Arrow2Lstartx-0"
       refX="0"
       refY="0"
       orient="auto"
       inkscape:stockid="Arrow2Lstartx">
      <path
         inkscape:connector-curvature="0"
         transform="matrix(1.1,0,0,1.1,1.1,0)"
         d="M 8.7185878,4.0337352 -2.2072895,0.01601326 8.7185884,-4.0017078 c -1.7454984,2.3720609 -1.7354408,5.6174519 -6e-7,8.035443 z"
         style="font-size:12px;fill:#ff0000;fill-rule:evenodd;stroke:#ff0000;stroke-width:0.625;stroke-linejoin:round"
         id="path5079-6" />
    </marker>
  </defs>
  <metadata
     id="metadata3859">
    <rdf:RDF>
      <cc:Work
         rdf:about="">
        <dc:format>image/svg+xml</dc:format>
        <dc:type
           rdf:resource="http://purl.org/dc/dcmitype/StillImage" />
        <dc:title />
      </cc:Work>
    </rdf:RDF>
  </metadata>
  <g
     inkscape:groupmode="layer"
     inkscape:label="Layer 1"
     id="layer1">
    <path
       inkscape:connector-curvature="0"
       id="path3053"
       d="m 87.9074,149.02076 c 2.07443,-3.61632 4.97008,-6.27788 7.84674,-9.15454 0.43593,-0.43593 0.96582,-0.79483 1.30779,-1.30779 0.79644,-1.19465 1.11631,-3.17374 2.61558,-3.92337 0.38991,-0.19496 0.91789,0.19495 1.30779,0 1.07582,-0.53791 4.26394,-4.58635 5.23117,-5.23117 0.36271,-0.24181 0.91788,0.19496 1.30779,0 0.55141,-0.2757 0.75637,-1.03208 1.30779,-1.30779 0.38991,-0.19495 0.91788,0.19496 1.30779,0 0.55141,-0.2757 0.75638,-1.03208 1.30779,-1.30779 0.38991,-0.19495 0.91788,0.19496 1.30779,0 0.55141,-0.2757 0.79483,-0.96582 1.30779,-1.30779 1.62211,-1.08141 3.60905,-1.53417 5.23116,-2.61558 0.51296,-0.34197 0.79483,-0.96582 1.30779,-1.30779 0.81106,-0.5407 1.80453,-0.76708 2.61558,-1.30779 2.39292,-1.59527 0.13048,-1.66736 3.92338,-2.61558 0.86767,-0.21692 6.73722,0 7.84674,0 2.17965,0 4.40163,-0.42746 6.53895,0 0.95584,0.19117 1.71053,0.94577 2.61558,1.30779 1.27994,0.51197 2.64344,0.79582 3.92337,1.30779 1.81011,0.72404 3.33984,2.14275 5.23117,2.61558 0.84583,0.21146 1.76975,-0.21146 2.61558,0 3.79289,0.94823 1.53046,1.02031 3.92337,2.61558 1.62211,1.08141 3.60905,1.53417 5.23116,2.61558 0.51296,0.34198 0.79483,0.96582 1.30779,1.30779 0.81106,0.54071 1.80453,0.76709 2.61558,1.30779 0.51296,0.34198 0.75638,1.03209 1.30779,1.3078 0.38991,0.19495 0.91789,-0.19496 1.30779,0 0.55142,0.2757 0.87186,0.87186 1.30779,1.30779 1.30779,1.30779 2.61559,2.61558 3.92338,3.92337 0.87186,0.87186 1.58966,1.93164 2.61558,2.61558 1.62211,1.08141 3.60904,1.53417 5.23116,2.61558 1.02591,0.68395 1.74372,1.74372 2.61558,2.61558 1.30779,1.30779 2.61558,2.61559 3.92337,3.92338 0.43593,0.43593 0.75638,1.03208 1.30779,1.30779 0.38991,0.19495 0.89423,-0.13786 1.30779,0 0.92475,0.30825 1.69084,0.99954 2.61558,1.30779 0.82712,0.2757 1.99909,-0.6165 2.61559,0 0.30824,0.30825 -0.30825,0.99954 0,1.30779 0.26736,0.26736 3.40484,-0.25927 3.92337,0 0.55141,0.2757 0.75637,1.03208 1.30779,1.30779 0.77981,0.38991 1.78846,-0.27571 2.61558,0 0.92475,0.30825 1.66991,1.07137 2.61558,1.30779 0.84583,0.21146 1.74372,0 2.61558,0 0.43593,0 0.91788,-0.19496 1.30779,0 0.55141,0.27571 0.75638,1.03208 1.30779,1.30779 0.11149,0.0557 5.11968,0.0557 5.23116,0 0.55142,-0.27571 0.72293,-1.11284 1.30779,-1.30779 1.2094,-0.40313 6.98513,0.43081 7.84675,0 0.55141,-0.27571 0.75638,-1.03209 1.30779,-1.30779 0.82504,-0.41252 5.71391,0.41252 6.53895,0 5.98524,-2.99262 -5.5495,0.54204 3.92337,-2.61558 0.41356,-0.13786 0.87186,0 1.30779,0 0.43593,-0.43593 0.75638,-1.03209 1.30779,-1.30779 0.38991,-0.19496 0.91789,0.19495 1.30779,0 1.10283,-0.55142 1.58967,-1.93164 2.61559,-2.61558 0.81105,-0.54071 1.80452,-0.76709 2.61558,-1.3078 1.02591,-0.68394 1.58966,-1.93163 2.61558,-2.61558 0.65859,-2.88127 2.69037,-0.69129 3.92337,-1.30779 0.55141,-0.2757 0.75638,-1.03208 1.30779,-1.30779 0.38991,-0.19495 0.91788,0.19496 1.30779,0 0.55141,-0.2757 0.87186,-0.87186 1.30779,-1.30779 1.30779,-1.30779 2.61558,-2.61558 3.92337,-3.92337 0.87186,-0.87186 1.58967,-1.93164 2.61558,-2.61558 0.81106,-0.54071 1.74372,-0.87186 2.61558,-1.30779 2.61559,-1.3078 5.23117,-2.61559 7.84675,-3.92338 0.87186,-0.43593 1.92631,-0.61852 2.61558,-1.30779 1.37853,-1.37853 1.44586,-3.67153 2.61558,-5.23116 1.3665,-1.82199 3.58125,-3.58125 5.23116,-5.23116 0.43593,-0.43593 0.87186,-0.87186 1.30779,-1.30779 0.43593,-0.43593 0.72293,-1.11284 1.30779,-1.30779 0.82712,-0.27571 1.76976,0.21146 2.61558,0 0.94567,-0.23642 1.69084,-0.99954 2.61559,-1.30779 1.24067,-0.41356 2.68269,0.41356 3.92337,0 0.58486,-0.19496 0.72293,-1.11284 1.30779,-1.30779 0.70307,-0.23436 4.12392,0 5.23116,0 3.48744,0 6.97488,0 10.46232,0 2.61559,0 5.23117,0 7.84675,0 0.87186,0 1.76975,-0.21146 2.61558,0 0.94566,0.23641 1.69083,0.99954 2.61558,1.30779 0.41356,0.13785 0.89423,-0.13786 1.30779,0 0.92475,0.30825 1.66992,1.07137 2.61558,1.30779 0.84583,0.21146 1.74372,0 2.61558,0 2.17965,0 4.3593,0 6.53896,0 0.43593,0 0.91788,-0.19496 1.30779,0 0.55141,0.27571 0.87186,0.87186 1.30779,1.30779 0.87186,0 1.78846,-0.27571 2.61558,0 0.58486,0.19495 0.75638,1.03208 1.30779,1.30779 1.04623,0.52312 2.87714,-0.52312 3.92337,0 0.55141,0.27571 0.75638,1.03208 1.30779,1.30779 0.77982,0.38991 1.99908,-0.6165 2.61558,0 0.30825,0.30825 -0.38991,1.11284 0,1.30779 0.77982,0.38991 1.78846,-0.27571 2.61558,0 1.16973,0.38991 1.51276,2.06417 2.61558,2.61558 0.77982,0.38991 1.83577,-0.38991 2.61558,0 0.55142,0.27571 0.79484,0.96582 1.3078,1.30779 1.62211,1.08141 3.60904,1.53417 5.23116,2.61558 1.61608,1.07739 0.99949,1.53819 2.61558,2.61558 0.65859,2.88128 2.69037,0.6913 3.92337,1.30779 0.55141,0.27571 0.72293,1.11284 1.30779,1.30779 0.82712,0.27571 1.78846,-0.2757 2.61558,0 1.16973,0.38991 1.58967,1.93164 2.61558,2.61559 0.81106,0.5407 1.80453,0.76708 2.61558,1.30779 1.02592,0.68394 1.51276,2.06416 2.61558,2.61558 0.38991,0.19495 0.87187,0 1.3078,0 0.43593,0.43593 0.75637,1.03208 1.30779,1.30779 0.3899,0.19495 0.99954,-0.30825 1.30779,0 0.30825,0.30825 -0.30825,0.99954 0,1.30779 0.30825,0.30825 0.91788,-0.19495 1.30779,0 1.15914,0.57957 2.73287,3.12971 3.92337,3.92337 0.81106,0.54071 1.80452,0.76709 2.61558,1.30779 0.51296,0.34198 0.79483,0.96582 1.30779,1.30779 0.81106,0.54071 1.74372,0.87187 2.61558,1.3078 0.87186,0.43593 1.69083,0.99954 2.61558,1.30779 0.41356,0.13785 0.91789,-0.19496 1.30779,0 0.55142,0.2757 0.75638,1.03208 1.30779,1.30779 0.75087,0.37543 6.79376,-0.351 7.84675,0 0.58486,0.19495 0.75637,1.03208 1.30779,1.30779 0.38903,0.19451 7.2966,0 7.84674,0 2.17965,0 4.3593,0 6.53895,0 0.85936,0 3.18552,0.24595 3.92338,0 0.92474,-0.30825 1.69083,-0.99954 2.61558,-1.30779 0.41356,-0.13786 0.87186,0 1.30779,0 0.99838,0 7.02277,0.27465 7.84674,0 0.92475,-0.30825 1.69083,-0.99954 2.61558,-1.30779 1.56735,-0.52245 1.04824,0.52244 2.61558,0 0.92475,-0.30825 1.69084,-0.99955 2.61558,-1.30779 0.82712,-0.27571 1.83577,0.3899 2.61558,0 0.55142,-0.27571 0.72293,-1.11284 1.30779,-1.3078 0.82712,-0.2757 1.78847,0.27571 2.61559,0 0.58486,-0.19495 0.79483,-0.96581 1.30779,-1.30779 1.62211,-1.08141 3.60904,-1.53417 5.23116,-2.61558 0.51296,-0.34197 0.72293,-1.11283 1.30779,-1.30779 0.82712,-0.2757 1.78846,0.27571 2.61558,0 0.58486,-0.19495 0.87186,-0.87186 1.30779,-1.30779 0.87186,0 1.76975,0.21146 2.61558,0 6.31525,-1.57881 -0.0648,-0.62149 3.92337,-2.61558 0.77982,-0.38991 1.83577,0.38991 2.61558,0 0.83303,-0.41652 5.51134,-5.51134 6.53896,-6.53896 1.74372,-1.74372 3.48744,-3.48744 5.23116,-5.23116 0.43593,-0.43593 0.87186,-0.87186 1.30779,-1.30779 0.43593,-0.43593 1.03208,-0.75638 1.30779,-1.30779 0.90196,-1.80391 -1.58381,-1.16978 1.30779,-2.61558 0.77982,-0.38991 1.99908,0.6165 2.61558,0 0.30825,-0.30825 -0.30825,-0.99954 0,-1.30779 0.30825,-0.30825 0.91789,0.19495 1.30779,0 3.98819,-1.99409 -2.39187,-1.03677 3.92337,-2.61558 1.26875,-0.31719 2.61559,0 3.92338,0 2.61558,0 5.23116,0 7.84674,0 0.87186,0 1.74372,0 2.61558,0 0.43593,0 0.89423,0.13785 1.30779,0 0.92475,-0.30825 1.69083,-0.99954 2.61558,-1.30779 0.70779,-0.23593 4.78563,0 5.23116,0 3.92338,0 7.84675,0 11.77012,0 0.96002,0 7.39081,-0.22797 7.84674,0 0.55142,0.27571 0.72293,1.11284 1.30779,1.30779 1.17701,0.39234 2.74636,-0.39234 3.92337,0 0.92475,0.30825 1.69084,0.99954 2.61559,1.30779 1.38967,0.46322 3.84148,-0.46322 5.23116,0 0.92475,0.30825 1.69083,0.99954 2.61558,1.30779 0.89954,0.29985 3.15175,-0.38581 3.92337,0 0.55141,0.27571 0.75638,1.03208 1.30779,1.30779 0.38991,0.19496 0.87186,0 1.30779,0 0.87186,0 1.76975,-0.21146 2.61558,0 0.94567,0.23642 1.69084,0.99954 2.61558,1.30779 0.41356,0.13786 0.87186,0 1.30779,0 1.30779,0.43593 2.64344,0.79582 3.92338,1.30779 0.90505,0.36202 1.80452,0.76709 2.61558,1.30779 0.51295,0.34197 0.72293,1.11284 1.30779,1.30779 1.38967,0.46323 3.84149,-0.46322 5.23116,0 4.74112,1.58038 0.93075,0.6205 3.92337,2.61558 1.62212,1.08141 3.60905,1.53418 5.23116,2.61558 0.51296,0.34198 0.72293,1.11284 1.30779,1.3078 0.82712,0.2757 1.78847,-0.27571 2.61559,0 0.70782,0.23594 3.06418,3.35058 3.92337,3.92337 0.81105,0.5407 1.80452,0.76708 2.61558,1.30779 0.51296,0.34197 0.79483,0.96582 1.30779,1.30779 0.81106,0.54071 1.74372,0.87186 2.61558,1.30779 0.87186,0.43593 1.66992,1.07138 2.61558,1.30779 0.84583,0.21146 1.78846,-0.2757 2.61558,0 0.58486,0.19496 0.87186,0.87186 1.30779,1.30779 0.87186,0.43593 1.69084,0.99954 2.61558,1.30779 1.17701,0.39234 2.74636,-0.39233 3.92338,0 1.16403,0.38802 2.75933,3.53536 3.92337,3.92338 0.82712,0.2757 1.78846,-0.27571 2.61558,0 1.16972,0.3899 1.51275,2.06416 2.61558,2.61558 0.38903,0.19451 7.2966,0 7.84674,0 2.61558,0 5.23116,0 7.84675,0 1.30779,0 2.64097,0.25648 3.92337,0 0.95584,-0.19117 1.69083,-0.99954 2.61558,-1.30779 1.96168,-0.6539 1.30779,1.30779 3.92337,0 0.38991,-0.19496 -0.30825,-0.99955 0,-1.30779 0.6165,-0.6165 1.83577,0.3899 2.61558,0 0.55141,-0.27571 0.75638,-1.03209 1.30779,-1.3078 0.38991,-0.19495 0.87186,0 1.30779,0 0.43593,0 0.87186,0 1.30779,0 1.40305,0 8.29009,0.28815 9.15454,0 1.84949,-0.61649 3.33983,-2.14274 5.23116,-2.61558 0.84583,-0.21145 1.74372,0 2.61558,0 0.87186,-0.43593 1.66992,-1.07137 2.61558,-1.30779 0.84583,-0.21145 1.78846,0.27571 2.61558,0 0.58486,-0.19495 0.75638,-1.03208 1.30779,-1.30779 0.38991,-0.19495 0.89423,0.13786 1.30779,0 0.92475,-0.30825 1.69084,-0.99954 2.61558,-1.30779 3.89308,-1.29769 -2.68333,3.09668 3.92338,-1.30779 0.51295,-0.34197 0.72292,-1.11284 1.30779,-1.30779 0.82712,-0.27571 1.78846,0.2757 2.61558,0 0.58486,-0.19496 0.75637,-1.03209 1.30779,-1.30779 0.38991,-0.19496 0.91788,0.19495 1.30779,0 4.33739,-4.3374 -1.233,0.6165 2.61558,-1.30779 2.8916,-1.4458 0.40583,-0.81167 1.30779,-2.61558 0.55141,-1.10283 2.06417,-1.51276 2.61558,-2.61559 0.19496,-0.3899 -0.30825,-0.99954 0,-1.30779 0.30825,-0.30825 0.99954,0.30825 1.30779,0 2.70587,-2.70586 -4.13492,0.10578 1.30779,-2.61558 0.38991,-0.19495 0.99954,0.30825 1.30779,0 0.30825,-0.30825 -0.19495,-0.91788 0,-1.30779 0.55142,-1.10282 2.06417,-1.51275 2.61558,-2.61558 0.19496,-0.38991 -0.30825,-0.99954 0,-1.30779 0.30825,-0.30825 0.91789,0.19496 1.30779,0 1.56935,-0.78467 2.35403,-3.1387 3.92338,-3.92337 0.3899,-0.19495 0.99954,0.30825 1.30779,0 0.30825,-0.30825 -0.30825,-0.99954 0,-1.30779 0.30825,-0.30825 0.87186,0 1.30779,0 0.31717,0 3.88131,-0.0421 3.92337,0 0.30825,0.30825 -0.30825,0.99954 0,1.30779 0.16154,0.16154 4.41106,0 5.23116,0 3.067,0 -0.6165,0.30825 2.61558,-1.30779 0.38991,-0.19495 0.87186,0 1.30779,0 0.43593,0 0.87186,0 1.30779,0 2.17965,0 4.3593,0 6.53896,0 0.43593,0 0.87186,0 1.30779,0 0.43593,0 0.91788,0.19495 1.30779,0 0.55141,-0.27571 0.72293,-1.11284 1.30779,-1.30779 0.84898,-0.283 7.96657,0 9.15453,0 6.53895,0 13.07791,0 19.61686,0 2.17965,0 4.3593,0 6.53895,0 0.87186,0 1.76975,0.21146 2.61558,0 6.7908,-1.6977 -1.39612,-1.30779 5.23117,-1.30779 0.43593,0 0.89423,-0.13786 1.30779,0 0.92474,0.30825 1.66991,1.07137 2.61558,1.30779 1.0203,0.25507 6.32032,0 7.84674,0 0.43593,0 0.87186,0 1.30779,0 0.43593,0 0.99954,-0.30825 1.30779,0 0.30825,0.30825 -0.30825,0.99954 0,1.30779 0.6165,0.6165 1.83577,-0.38991 2.61558,0 0.55142,0.27571 0.87186,0.87186 1.30779,1.30779 0.43593,0.43593 0.87186,0.87186 1.30779,1.30779"
       style="fill:#ff0000;fill-opacity:0.00423728;stroke:#060039;stroke-width:5;stroke-miterlimit:4;stroke-opacity:1;stroke-dasharray:none" />
    <path
       inkscape:connector-curvature="0"
       id="path3053-8"
       d="m 131.98673,163.48993 c 2.07443,-3.61632 4.97008,-6.27788 7.84674,-9.15454 0.43593,-0.43593 0.96582,-0.79483 1.30779,-1.30778 0.79644,-1.19466 1.11631,-3.17374 2.61558,-3.92338 0.38991,-0.19495 0.91789,0.19496 1.30779,0 1.07582,-0.53791 4.26394,-4.58634 5.23117,-5.23117 0.36271,-0.24181 0.91788,0.19496 1.30779,0 0.55141,-0.27571 0.75637,-1.03208 1.30779,-1.30779 0.38991,-0.19495 0.91788,0.19495 1.30779,0 0.55141,-0.27571 0.75638,-1.03208 1.30779,-1.30779 0.38991,-0.19495 0.91788,0.19495 1.30779,0 0.55141,-0.27571 0.79483,-0.96582 1.30779,-1.30779 1.62211,-1.08141 3.60905,-1.53417 5.23116,-2.61558 0.51296,-0.34197 0.79483,-0.96582 1.30779,-1.30779 0.81106,-0.54071 1.80453,-0.76709 2.61558,-1.30779 2.39292,-1.59528 0.13048,-1.66736 3.92338,-2.61558 0.86767,-0.21692 6.73722,0 7.84674,0 2.17965,0 4.40163,-0.42747 6.53895,0 0.95584,0.19116 1.71053,0.94577 2.61558,1.30779 1.27994,0.51197 2.64344,0.79581 3.92337,1.30779 1.81011,0.72404 3.33984,2.14275 5.23117,2.61558 0.84583,0.21146 1.76975,-0.21146 2.61558,0 3.79289,0.94822 1.53046,1.0203 3.92337,2.61558 1.62211,1.08141 3.60905,1.53417 5.23116,2.61558 0.51296,0.34197 0.79483,0.96582 1.30779,1.30779 0.81106,0.54072 1.80453,0.7671 2.61558,1.3078 0.51296,0.34197 0.75638,1.03209 1.30779,1.30779 0.38991,0.19496 0.91789,-0.19495 1.30779,0 0.55142,0.27571 0.87186,0.87186 1.30779,1.30779 1.30779,1.30779 2.61559,2.61558 3.92338,3.92337 0.87186,0.87186 1.58966,1.93164 2.61558,2.61558 1.62211,1.08141 3.60904,1.53417 5.23116,2.61558 1.02591,0.68395 1.74372,1.74372 2.61558,2.61558 1.30779,1.30779 2.61558,2.61559 3.92337,3.92338 0.43593,0.43593 0.75638,1.03208 1.30779,1.30779 0.38991,0.19495 0.89423,-0.13786 1.30779,0 0.92475,0.30825 1.69084,0.99954 2.61558,1.30779 0.82712,0.2757 1.99909,-0.6165 2.61559,0 0.30824,0.30825 -0.30825,0.99954 0,1.30779 0.26736,0.26736 3.40484,-0.25927 3.92337,0 0.55141,0.2757 0.75637,1.03208 1.30779,1.30779 0.77981,0.38991 1.78846,-0.27571 2.61558,0 0.92475,0.30825 1.66991,1.07137 2.61558,1.30779 0.84583,0.21146 1.74372,0 2.61558,0 0.43593,0 0.91788,-0.19496 1.30779,0 0.55141,0.27571 0.75638,1.03208 1.30779,1.30779 0.11149,0.0557 5.11968,0.0557 5.23116,0 0.55142,-0.27571 0.72293,-1.11284 1.30779,-1.30779 1.2094,-0.40313 6.98513,0.43081 7.84675,0 0.55141,-0.27571 0.75638,-1.03209 1.30779,-1.30779 0.82504,-0.41252 5.71391,0.41252 6.53895,0 5.98524,-2.99262 -5.5495,0.54204 3.92337,-2.61558 0.41356,-0.13786 0.87186,0 1.30779,0 0.43593,-0.43593 0.75638,-1.03209 1.30779,-1.30779 0.38991,-0.19496 0.91789,0.19495 1.30779,0 1.10283,-0.55142 1.58967,-1.93164 2.61559,-2.61558 0.81105,-0.54071 1.80452,-0.76709 2.61558,-1.3078 1.02591,-0.68394 1.58966,-1.93163 2.61558,-2.61558 0.65859,-2.88127 2.69037,-0.69129 3.92337,-1.30779 0.55141,-0.2757 0.75638,-1.03208 1.30779,-1.30779 0.38991,-0.19495 0.91788,0.19496 1.30779,0 0.55141,-0.2757 0.87186,-0.87186 1.30779,-1.30779 1.30779,-1.30778 2.61558,-2.61558 3.92337,-3.92337 0.87186,-0.87186 1.58967,-1.93163 2.61558,-2.61558 0.81106,-0.5407 1.74372,-0.87186 2.61558,-1.30779 2.61559,-1.30779 5.23117,-2.61559 7.84675,-3.92338 0.87186,-0.43593 1.92631,-0.61852 2.61558,-1.30779 1.37853,-1.37853 1.44586,-3.67153 2.61558,-5.23116 1.3665,-1.822 3.58125,-3.58125 5.23116,-5.23116 0.43593,-0.43593 0.87186,-0.87186 1.30779,-1.30779 0.43593,-0.43593 0.72293,-1.11284 1.30779,-1.3078 0.82712,-0.2757 1.76976,0.21146 2.61558,0 0.94567,-0.23641 1.69084,-0.99954 2.61559,-1.30779 1.24067,-0.41356 2.68269,0.41356 3.92337,0 0.58486,-0.19495 0.72293,-1.11283 1.30779,-1.30779 0.70307,-0.23436 4.12392,0 5.23116,0 3.48744,0 6.97488,0 10.46232,0 2.61559,0 5.23117,0 7.84675,0 0.87186,0 1.76975,-0.21145 2.61558,0 0.94566,0.23642 1.69083,0.99954 2.61558,1.30779 0.41356,0.13786 0.89423,-0.13785 1.30779,0 0.92475,0.30825 1.66992,1.07138 2.61558,1.30779 0.84583,0.21146 1.74372,0 2.61558,0 2.17965,0 4.3593,0 6.53896,0 0.43593,0 0.91788,-0.19495 1.30779,0 0.55141,0.27571 0.87186,0.87187 1.30779,1.3078 0.87186,0 1.78846,-0.27571 2.61558,0 0.58486,0.19495 0.75638,1.03208 1.30779,1.30779 1.04623,0.52311 2.87714,-0.52312 3.92337,0 0.55141,0.2757 0.75638,1.03208 1.30779,1.30779 0.77982,0.3899 1.99908,-0.6165 2.61558,0 0.30825,0.30825 -0.38991,1.11283 0,1.30779 0.77982,0.3899 1.78846,-0.27571 2.61558,0 1.16973,0.3899 1.51276,2.06417 2.61558,2.61558 0.77982,0.38991 1.83577,-0.38991 2.61558,0 0.55142,0.2757 0.79484,0.96582 1.3078,1.30779 1.62211,1.08141 3.60904,1.53417 5.23116,2.61558 1.61608,1.07739 0.99949,1.53819 2.61558,2.61558 0.65859,2.88129 2.69037,0.69129 3.92337,1.30779 0.55141,0.27571 0.72293,1.11285 1.30779,1.3078 0.82712,0.27571 1.78846,-0.2757 2.61558,0 1.16973,0.38991 1.58967,1.93164 2.61558,2.61558 0.81106,0.54071 1.80453,0.76709 2.61558,1.30779 1.02592,0.68395 1.51276,2.06417 2.61558,2.61558 0.38991,0.19496 0.87187,0 1.3078,0 0.43593,0.43593 0.75637,1.03209 1.30779,1.3078 0.3899,0.19495 0.99954,-0.30825 1.30779,0 0.30825,0.30824 -0.30825,0.99953 0,1.30778 0.30825,0.30825 0.91788,-0.19495 1.30779,0 1.15914,0.57957 2.73287,3.12971 3.92337,3.92337 0.81106,0.54071 1.80452,0.76709 2.61558,1.30779 0.51296,0.34198 0.79483,0.96582 1.30779,1.30779 0.81106,0.54071 1.74372,0.87187 2.61558,1.3078 0.87186,0.43593 1.69083,0.99954 2.61558,1.30779 0.41356,0.13785 0.91789,-0.19496 1.30779,0 0.55142,0.2757 0.75638,1.03208 1.30779,1.30779 0.75087,0.37543 6.79376,-0.351 7.84675,0 0.58486,0.19495 0.75637,1.03208 1.30779,1.30779 0.38903,0.19451 7.2966,0 7.84674,0 2.17965,0 4.3593,0 6.53895,0 0.85936,0 3.18552,0.24595 3.92338,0 0.92474,-0.30825 1.69083,-0.99954 2.61558,-1.30779 0.41356,-0.13786 0.87186,0 1.30779,0 0.99838,0 7.02277,0.27465 7.84674,0 0.92475,-0.30825 1.69083,-0.99954 2.61558,-1.30779 1.56735,-0.52245 1.04824,0.52244 2.61558,0 0.92475,-0.30825 1.69084,-0.99955 2.61558,-1.30779 0.82712,-0.27571 1.83577,0.3899 2.61558,0 0.55142,-0.27571 0.72293,-1.11284 1.30779,-1.3078 0.82712,-0.2757 1.78847,0.27571 2.61559,0 0.58486,-0.19495 0.79483,-0.96581 1.30779,-1.30779 1.62211,-1.08141 3.60904,-1.53417 5.23116,-2.61558 0.51296,-0.34197 0.72293,-1.11283 1.30779,-1.30779 0.82712,-0.2757 1.78846,0.27571 2.61558,0 0.58486,-0.19495 0.87186,-0.87186 1.30779,-1.30779 0.87186,0 1.76975,0.21146 2.61558,0 6.31525,-1.57881 -0.0648,-0.62149 3.92337,-2.61558 0.77982,-0.3899 1.83577,0.38991 2.61558,0 0.83303,-0.41651 5.51134,-5.51133 6.53896,-6.53895 1.74372,-1.74373 3.48744,-3.48745 5.23116,-5.23117 0.43593,-0.43593 0.87186,-0.87186 1.30779,-1.30779 0.43593,-0.43593 1.03208,-0.75638 1.30779,-1.30779 0.90196,-1.80391 -1.58381,-1.16978 1.30779,-2.61558 0.77982,-0.38991 1.99908,0.6165 2.61558,0 0.30825,-0.30825 -0.30825,-0.99954 0,-1.30779 0.30825,-0.30825 0.91789,0.19495 1.30779,0 3.98819,-1.9941 -2.39187,-1.03677 3.92337,-2.61558 1.26875,-0.31719 2.61559,0 3.92338,0 2.61558,0 5.23116,0 7.84674,0 0.87186,0 1.74372,0 2.61558,0 0.43593,0 0.89423,0.13785 1.30779,0 0.92475,-0.30825 1.69083,-0.99955 2.61558,-1.30779 0.70779,-0.23593 4.78563,0 5.23116,0 3.92338,0 7.84675,0 11.77012,0 0.96002,0 7.39081,-0.22797 7.84674,0 0.55142,0.2757 0.72293,1.11283 1.30779,1.30779 1.17701,0.39233 2.74636,-0.39234 3.92337,0 0.92475,0.30824 1.69084,0.99954 2.61559,1.30779 1.38967,0.46322 3.84148,-0.46323 5.23116,0 0.92475,0.30825 1.69083,0.99954 2.61558,1.30779 0.89954,0.29984 3.15175,-0.38581 3.92337,0 0.55141,0.2757 0.75638,1.03208 1.30779,1.30779 0.38991,0.19495 0.87186,0 1.30779,0 0.87186,0 1.76975,-0.21146 2.61558,0 0.94567,0.23641 1.69084,0.99954 2.61558,1.30779 0.41356,0.13785 0.87186,0 1.30779,0 1.30779,0.43593 2.64344,0.79581 3.92338,1.30779 0.90505,0.36202 1.80452,0.76708 2.61558,1.30779 0.51295,0.34197 0.72293,1.11284 1.30779,1.30779 1.38967,0.46322 3.84149,-0.46322 5.23116,0 4.74112,1.58037 0.93075,0.6205 3.92337,2.61558 1.62212,1.08141 3.60905,1.53417 5.23116,2.61559 0.51296,0.34197 0.72293,1.11284 1.30779,1.30779 0.82712,0.27571 1.78847,-0.2757 2.61559,0 0.70782,0.23594 3.06418,3.35058 3.92337,3.92337 0.81105,0.54071 1.80452,0.76709 2.61558,1.30779 0.51296,0.34198 0.79483,0.96582 1.30779,1.3078 0.81106,0.5407 1.74372,0.87185 2.61558,1.30778 0.87186,0.43593 1.66992,1.07138 2.61558,1.30779 0.84583,0.21146 1.78846,-0.2757 2.61558,0 0.58486,0.19496 0.87186,0.87186 1.30779,1.30779 0.87186,0.43593 1.69084,0.99954 2.61558,1.30779 1.17701,0.39234 2.74636,-0.39233 3.92338,0 1.16403,0.38802 2.75933,3.53536 3.92337,3.92338 0.82712,0.2757 1.78846,-0.27571 2.61558,0 1.16972,0.3899 1.51275,2.06416 2.61558,2.61558 0.38903,0.19451 7.2966,0 7.84674,0 2.61558,0 5.23116,0 7.84675,0 1.30779,0 2.64097,0.25648 3.92337,0 0.95584,-0.19117 1.69083,-0.99954 2.61558,-1.30779 1.96168,-0.6539 1.30779,1.30779 3.92337,0 0.38991,-0.19496 -0.30825,-0.99955 0,-1.30779 0.6165,-0.6165 1.83577,0.3899 2.61558,0 0.55141,-0.27571 0.75638,-1.03209 1.30779,-1.3078 0.38991,-0.19495 0.87186,0 1.30779,0 0.43593,0 0.87186,0 1.30779,0 1.40305,0 8.29009,0.28815 9.15454,0 1.84949,-0.61649 3.33983,-2.14274 5.23116,-2.61558 0.84583,-0.21145 1.74372,0 2.61558,0 0.87186,-0.43593 1.66992,-1.07137 2.61558,-1.30779 0.84583,-0.21145 1.78846,0.27571 2.61558,0 0.58486,-0.19495 0.75638,-1.03208 1.30779,-1.30779 0.38991,-0.19495 0.89423,0.13786 1.30779,0 0.92475,-0.30825 1.69084,-0.99954 2.61558,-1.30779 3.89308,-1.29769 -2.68333,3.09668 3.92338,-1.30778 0.51295,-0.34198 0.72292,-1.11284 1.30779,-1.3078 0.82712,-0.2757 1.78846,0.27571 2.61558,0 0.58486,-0.19495 0.75637,-1.03208 1.30779,-1.30779 0.38991,-0.19495 0.91788,0.19496 1.30779,0 4.33739,-4.33739 -1.233,0.6165 2.61558,-1.30779 2.8916,-1.44579 0.40583,-0.81167 1.30779,-2.61558 0.55141,-1.10282 2.06417,-1.51275 2.61558,-2.61559 0.19496,-0.38991 -0.30825,-0.99954 0,-1.30779 0.30825,-0.30825 0.99954,0.30825 1.30779,0 2.70587,-2.70586 -4.13492,0.10578 1.30779,-2.61558 0.38991,-0.19495 0.99954,0.30825 1.30779,0 0.30825,-0.30825 -0.19495,-0.91788 0,-1.30779 0.55142,-1.10283 2.06417,-1.51276 2.61558,-2.61558 0.19496,-0.38991 -0.30825,-0.99954 0,-1.30779 0.30825,-0.30825 0.91789,0.19495 1.30779,0 1.56935,-0.78468 2.35403,-3.1387 3.92338,-3.92337 0.3899,-0.19496 0.99954,0.30824 1.30779,0 0.30825,-0.30825 -0.30825,-0.99955 0,-1.30779 0.30825,-0.30825 0.87186,0 1.30779,0 0.31717,0 3.88131,-0.0421 3.92337,0 0.30825,0.30824 -0.30825,0.99954 0,1.30779 0.16154,0.16154 4.41106,0 5.23116,0 3.067,0 -0.6165,0.30824 2.61558,-1.30779 0.38991,-0.19496 0.87186,0 1.30779,0 0.43593,0 0.87186,0 1.30779,0 2.17965,0 4.3593,0 6.53896,0 0.43593,0 0.87186,0 1.30779,0 0.43593,0 0.91788,0.19495 1.30779,0 0.55141,-0.27571 0.72293,-1.11284 1.30779,-1.3078 0.84898,-0.28299 7.96657,0 9.15453,0 6.53895,0 13.07791,0 19.61686,0 2.17965,0 4.3593,0 6.53895,0 0.87186,0 1.76975,0.21146 2.61558,0 6.7908,-1.69769 -1.39612,-1.30779 5.23117,-1.30779 0.43593,0 0.89423,-0.13785 1.30779,0 0.92474,0.30825 1.66991,1.07138 2.61558,1.30779 1.0203,0.25508 6.32032,0 7.84674,0 0.43593,0 0.87186,0 1.30779,0 0.43593,0 0.99954,-0.30824 1.30779,0 0.30825,0.30825 -0.30825,0.99955 0,1.3078 0.6165,0.61649 1.83579,-0.38991 2.61559,0 0.5514,0.2757 0.8719,0.87186 1.3078,1.30779 0.4359,0.43593 0.8718,0.87186 1.3078,1.30779"
       style="fill:#ff0000;fill-opacity:0.00423728;stroke:#060039;stroke-width:5;stroke-miterlimit:4;stroke-opacity:1;stroke-dasharray:none" />
    <path
       inkscape:connector-curvature="0"
       id="path3859"
       d="m 634.37683,50.395892 -240.43437,0"
       style="stroke-opacity:1;fill-opacity:0.00423728000000000;marker-start:url(#Arrow2Lstartx);stroke:#ff0000;stroke-miterlimit:4;stroke-dasharray:none;stroke-width:4.9;fill:#ff0000" />
    <path
       inkscape:connector-curvature="0"
       id="path3859-3"
       d="m 398.66278,237.27601 240.43413,-0.34305"
       style="fill:#ff0000;fill-opacity:0.00423728;stroke:#ff0000;stroke-width:4.9000001;stroke-miterlimit:4;stroke-opacity:1;stroke-dasharray:none;marker-start:url(#Arrow2Lstartx)" />
  </g>
</svg>
